<svg width="300" height="221" viewBox="0 0 300 221" fill="none" xmlns="http://www.w3.org/2000/svg">
<g clip-path="url(#clip0_54721_42231)">
<g clip-path="url(#clip1_54721_42231)">
<path d="M221.99 261.439C237.993 261.439 250.966 248.729 250.966 233.05C250.966 217.371 237.993 204.66 221.99 204.66C205.988 204.66 193.015 217.371 193.015 233.05C193.015 248.729 205.988 261.439 221.99 261.439Z" fill="white"/>
<path d="M221.991 261.789C216.189 261.79 210.517 260.106 205.692 256.95C200.867 253.793 197.106 249.305 194.885 244.054C192.663 238.803 192.081 233.024 193.212 227.448C194.342 221.873 197.135 216.751 201.237 212.731C205.339 208.711 210.566 205.973 216.256 204.863C221.946 203.754 227.844 204.322 233.204 206.497C238.565 208.672 243.146 212.356 246.37 217.082C249.593 221.808 251.314 227.365 251.314 233.05C251.307 240.668 248.215 247.972 242.718 253.36C237.22 258.748 229.766 261.779 221.991 261.789ZM221.991 205.01C216.33 205.01 210.797 206.654 206.091 209.735C201.384 212.816 197.716 217.195 195.55 222.319C193.384 227.443 192.817 233.081 193.922 238.52C195.026 243.959 197.752 248.955 201.754 252.877C205.756 256.798 210.856 259.469 216.407 260.551C221.959 261.633 227.713 261.077 232.943 258.955C238.172 256.833 242.642 253.239 245.786 248.628C248.931 244.017 250.61 238.595 250.61 233.05C250.602 225.615 247.585 218.487 242.219 213.23C236.854 207.973 229.579 205.017 221.991 205.01Z" fill="#25B3AB"/>
<path d="M226.655 216.955H217.326V249.144H226.655V216.955Z" fill="#25B3AB"/>
<path d="M25.7102 18.4519L25.0883 17.7978C29.3222 13.8763 34.6946 11.3399 40.4633 10.5391L40.5913 11.4352C35.0086 12.2066 29.8085 14.6585 25.7102 18.4519Z" fill="#25B3AB"/>
<path d="M18.9419 28.2464L18.0913 27.9238C19.0146 25.6409 20.245 23.4891 21.7498 21.5254L22.4816 22.0541C21.0302 23.9576 19.8402 26.0395 18.9419 28.2464Z" fill="#25B3AB"/>
<path d="M44.4601 62.5783C58.3211 62.5783 69.5577 51.569 69.5577 37.9884C69.5577 24.4077 58.3211 13.3984 44.4601 13.3984C30.5991 13.3984 19.3625 24.4077 19.3625 37.9884C19.3625 51.569 30.5991 62.5783 44.4601 62.5783Z" fill="#25B3AB"/>
<path d="M59.4511 26.9125C58.4845 25.9298 57.3278 25.1456 56.0485 24.6056C54.7692 24.0656 53.393 23.7806 52.0001 23.7673C50.6072 23.7539 49.2256 24.0125 47.9357 24.5279C46.6459 25.0433 45.4738 25.8052 44.4877 26.7691C43.503 25.8043 42.3319 25.0416 41.0427 24.5257C39.7536 24.0097 38.3723 23.7508 36.9798 23.7642C35.5873 23.7775 34.2116 24.0628 32.933 24.6034C31.6544 25.144 30.4986 25.929 29.5334 26.9125C27.6407 28.9185 26.621 31.5686 26.691 34.2996C26.761 37.0305 27.9153 39.6271 29.9084 41.5374L41.7987 53.1872C42.1554 53.5367 42.5789 53.814 43.045 54.0032C43.5111 54.1923 44.0106 54.2897 44.5151 54.2897C45.0196 54.2897 45.5192 54.1923 45.9853 54.0032C46.4514 53.814 46.8749 53.5367 47.2316 53.1872L59.1219 41.5374C61.1087 39.6212 62.2546 37.0214 62.3161 34.2905C62.3776 31.5595 61.3498 28.9127 59.4511 26.9125Z" fill="white"/>
<path d="M44.4602 48.7327C44.2747 48.7259 44.0958 48.6639 43.9471 48.5551C43.7985 48.4463 43.6871 48.2957 43.6279 48.1234L38.2955 32.9518L36.0821 39.3054C36.0192 39.4817 35.9017 39.6344 35.7459 39.742C35.5901 39.8497 35.4039 39.9069 35.2132 39.9058H26.3504C26.1078 39.9058 25.8752 39.8114 25.7037 39.6433C25.5322 39.4753 25.4358 39.2474 25.4358 39.0097C25.4358 38.772 25.5322 38.5441 25.7037 38.376C25.8752 38.208 26.1078 38.1136 26.3504 38.1136H34.5821L37.4541 29.896C37.5163 29.7199 37.633 29.5672 37.7879 29.4591C37.9428 29.351 38.1282 29.293 38.3184 29.293C38.5086 29.293 38.694 29.351 38.849 29.4591C39.0039 29.5672 39.1205 29.7199 39.1827 29.896L44.5699 45.3274L49.8016 33.2655C49.8686 33.1118 49.9781 32.9795 50.1177 32.8836C50.2573 32.7876 50.4216 32.7318 50.5918 32.7225C50.7621 32.7132 50.9317 32.7507 51.0813 32.8308C51.231 32.9109 51.3548 33.0304 51.4388 33.1759L54.2559 38.1136H62.5882C62.8308 38.1136 63.0634 38.208 63.235 38.376C63.4065 38.5441 63.5029 38.772 63.5029 39.0097C63.5029 39.2474 63.4065 39.4753 63.235 39.6433C63.0634 39.8114 62.8308 39.9058 62.5882 39.9058H53.7254C53.5618 39.9071 53.4008 39.8654 53.2593 39.7851C53.1177 39.7047 53.0007 39.5885 52.9206 39.4488L50.7529 35.6492L45.3199 48.1951C45.2473 48.3582 45.1268 48.4965 44.9737 48.5922C44.8205 48.688 44.6418 48.7369 44.4602 48.7327Z" fill="#25B3AB"/>
<path d="M183.713 292.785H88.2528C86.6935 292.801 85.148 292.499 83.7147 291.897C82.2814 291.295 80.9918 290.408 79.9282 289.291C78.8645 288.173 78.0502 286.851 77.537 285.409C77.0239 283.966 76.8233 282.434 76.9479 280.911L92.3778 56.9585C92.6473 53.759 94.1212 50.7719 96.5129 48.5775C98.9047 46.3832 102.044 45.1383 105.32 45.0847H200.799C202.358 45.0672 203.904 45.3688 205.338 45.97C206.772 46.5712 208.062 47.4589 209.126 48.5764C210.19 49.6939 211.005 51.0165 211.517 52.4598C212.03 53.9031 212.229 55.4353 212.103 56.9585L196.646 280.911C196.377 284.109 194.904 287.095 192.514 289.289C190.124 291.484 186.988 292.729 183.713 292.785Z" fill="#181718"/>
<path d="M204.878 136.284H202.472C202.037 136.289 201.605 136.205 201.204 136.037C200.804 135.87 200.444 135.622 200.147 135.31C199.85 134.997 199.622 134.628 199.479 134.225C199.337 133.822 199.281 133.394 199.317 132.968L202.271 90.1421C202.34 89.2464 202.749 88.4087 203.418 87.7947C204.087 87.1807 204.967 86.8351 205.884 86.8264H208.289C208.725 86.8212 209.157 86.9052 209.557 87.073C209.958 87.2408 210.318 87.4887 210.615 87.8009C210.912 88.113 211.14 88.4825 211.282 88.8856C211.425 89.2888 211.481 89.7168 211.445 90.1421L208.491 132.968C208.422 133.864 208.013 134.702 207.344 135.316C206.675 135.93 205.795 136.275 204.878 136.284Z" fill="#181718"/>
<path d="M90.9876 107.716H88.5913C88.2371 107.719 87.886 107.651 87.5601 107.515C87.2343 107.379 86.9406 107.178 86.6975 106.926C86.4545 106.674 86.2673 106.375 86.1478 106.048C86.0282 105.721 85.9789 105.374 86.0028 105.028L87.073 89.5694C87.1405 88.8433 87.4795 88.1672 88.0247 87.671C88.57 87.1748 89.2831 86.8934 90.0272 86.881H92.4327C92.7865 86.8776 93.1372 86.9461 93.4626 87.0822C93.7881 87.2182 94.0812 87.4189 94.3236 87.6715C94.5659 87.9241 94.7522 88.2231 94.8707 88.5498C94.9892 88.8764 95.0373 89.2236 95.012 89.5694L93.9419 105.028C93.8763 105.755 93.5379 106.432 92.9922 106.928C92.4465 107.425 91.7323 107.706 90.9876 107.716Z" fill="#25B3AB"/>
<path d="M89.0852 135.335H86.6797C86.3259 135.339 85.9752 135.27 85.6498 135.134C85.3243 134.998 85.0312 134.797 84.7889 134.545C84.5465 134.292 84.3602 133.993 84.2417 133.666C84.1233 133.34 84.0751 132.993 84.1004 132.647L85.1705 117.189C85.2361 116.462 85.5745 115.784 86.1202 115.288C86.6659 114.791 87.3801 114.511 88.1248 114.5H90.5486C90.9024 114.497 91.2531 114.565 91.5785 114.701C91.904 114.837 92.1971 115.038 92.4394 115.291C92.6818 115.543 92.8681 115.842 92.9866 116.169C93.105 116.496 93.1532 116.843 93.1279 117.189L92.0577 132.647C91.9918 133.377 91.6509 134.056 91.1013 134.553C90.5518 135.05 89.833 135.329 89.0852 135.335Z" fill="#25B3AB"/>
<path d="M181.692 292.785H86.2315C84.6723 292.801 83.1268 292.499 81.6935 291.897C80.2602 291.295 78.9706 290.408 77.9069 289.291C76.8433 288.173 76.0289 286.851 75.5158 285.409C75.0027 283.966 74.802 282.434 74.9266 280.911L90.3657 56.9585C90.6361 53.7514 92.1164 50.7581 94.5178 48.5627C96.9192 46.3672 100.069 45.1273 103.353 45.0847H198.777C200.337 45.0672 201.883 45.3688 203.317 45.97C204.751 46.5712 206.041 47.4589 207.105 48.5764C208.169 49.6939 208.983 51.0165 209.496 52.4598C210.009 53.9031 210.208 55.4353 210.082 56.9585L194.634 280.911C194.364 284.111 192.891 287.098 190.499 289.292C188.107 291.487 184.968 292.732 181.692 292.785Z" fill="#25B3AB"/>
<path opacity="0.3" d="M75.9326 278.438L91.0058 59.8262H209.048L193.975 278.438H75.9326Z" fill="white"/>
<path opacity="0.1" d="M122.533 278.438L164.661 59.8262H191.104L148.976 278.438H122.533Z" fill="white"/>
<path opacity="0.1" d="M102.558 278.438L144.686 59.8262H158.085L115.957 278.438H102.558Z" fill="white"/>
<path d="M139.152 50.6055H162.173C162.366 50.6036 162.557 50.6411 162.734 50.7157C162.911 50.7904 163.07 50.9004 163.201 51.0388C163.332 51.1772 163.432 51.3409 163.494 51.5194C163.557 51.6979 163.58 51.8872 163.564 52.0752C163.532 52.4692 163.351 52.8373 163.057 53.1075C162.762 53.3777 162.376 53.5304 161.972 53.5359H138.951C138.759 53.5377 138.569 53.5004 138.393 53.4264C138.217 53.3523 138.058 53.2431 137.927 53.1057C137.797 52.9683 137.696 52.8057 137.633 52.6283C137.57 52.4508 137.545 52.2625 137.561 52.0752C137.592 51.6804 137.773 51.3112 138.067 51.0396C138.361 50.7679 138.748 50.6132 139.152 50.6055Z" fill="white"/>
<path d="M129.219 66.4143C118.637 65.1955 108.109 66.02 97.5455 68.0273C95.7845 68.3608 94.1779 69.2357 92.9591 70.5249C91.7403 71.8142 90.9728 73.4506 90.768 75.1964C89.6247 85.1076 88.3168 107.323 93.4205 140.462L136.664 136.877C136.747 130.855 132.384 103.469 135.988 75.044C136.134 74.0403 136.074 73.018 135.811 72.0373C135.548 71.0566 135.088 70.1372 134.457 69.3332C133.827 68.5292 133.039 67.8568 132.139 67.3556C131.24 66.8543 130.247 66.5343 129.219 66.4143Z" fill="white"/>
<path d="M104.039 74.9097L105.585 77.9476C105.661 78.0973 105.777 78.2244 105.92 78.3158C106.063 78.4071 106.228 78.4594 106.399 78.4673L108.073 78.557C108.371 78.5648 108.663 78.4766 108.905 78.306L111.786 76.2001L108.228 73.6641L104.039 74.9097Z" fill="#181718"/>
<path d="M108.128 77.6862C107.519 77.4028 106.826 77.3486 106.18 77.5338C104.817 82.2385 103.326 95.7433 103.17 101.729C107.305 113.523 108.658 114.723 108.658 114.723L110.753 100.52C110.753 100.52 108.402 85.9844 108.128 77.6862Z" fill="#181718"/>
<path d="M120.064 45.9824C119.076 51.8252 118.234 62.5071 122.515 66.2799C119.378 69.5059 115.271 73.2428 108.228 73.664C101.186 74.0852 102.274 69.2998 104.058 66.7548C110.634 65.0342 110.314 60.231 109.024 55.7413L120.064 45.9824Z" fill="#FFB573"/>
<path d="M124.308 65.7675C123.811 65.5527 123.293 65.3876 122.762 65.2747C122.633 65.2387 122.496 65.2456 122.372 65.2943C122.248 65.3429 122.144 65.4306 122.076 65.5435C121.399 66.6816 119.332 71.7179 108.228 73.6625C110.058 74.7199 112.481 77.9998 113.524 79.568C116.853 77.8833 125.515 72.8112 124.692 66.2604C124.675 66.1533 124.631 66.0519 124.564 65.9658C124.497 65.8797 124.409 65.8115 124.308 65.7675Z" fill="#F5F5F5"/>
<path d="M104.122 67.0145C104.143 66.9129 104.138 66.8077 104.108 66.7082C104.078 66.6088 104.024 66.518 103.95 66.4438C103.876 66.3695 103.785 66.3142 103.684 66.2824C103.583 66.2507 103.476 66.2436 103.372 66.2618C102.988 66.3414 102.609 66.4431 102.238 66.5664C102.15 66.5953 102.069 66.641 102 66.7009C101.149 67.4715 96.512 74.0223 100.856 79.3363C101.771 77.8936 104.927 74.6137 108.228 73.6638C105.1 72.2748 103.564 69.7119 104.122 67.0145Z" fill="#F5F5F5"/>
<path opacity="0.2" d="M115.564 49.9688L109.033 55.7399C109.349 56.782 109.57 57.8496 109.692 58.9301C112.216 58.5089 115.61 55.695 115.793 53.0963C115.916 52.0489 115.838 50.9882 115.564 49.9688Z" fill="black"/>
<path d="M106.838 28.3281C101.204 30.4788 100.838 35.0222 101.35 39.9779C101.863 44.9335 107.369 41.6447 108.594 38.553C109.82 35.4613 114.64 25.335 106.838 28.3281Z" fill="#181718"/>
<path d="M124.811 38.213C123.247 46.0094 122.725 50.6514 118.17 54.2449C111.302 59.6217 102 54.9797 101.177 46.9235C100.436 39.6827 103.116 28.1046 111.32 25.8553C113.109 25.3392 115.005 25.2894 116.82 25.7109C118.634 26.1323 120.306 27.0104 121.668 28.2584C123.031 29.5064 124.037 31.0812 124.588 32.827C125.139 34.5728 125.216 36.4293 124.811 38.213Z" fill="#FFB573"/>
<path d="M124.482 44.6731C117.777 45.0226 119.195 41.2857 120.411 39.144C121.628 37.0022 119.149 33.4714 120.768 31.6344C117.878 32.7545 114.832 31.8315 110.963 29.1879C107.963 27.1447 104.204 35.3444 100.546 31.2311C97.0882 27.3508 100.299 21.4991 108.603 20.5492C116.908 19.5993 118.417 25.3704 123.869 24.8596C129.32 24.3488 127.427 28.7399 126.356 29.636C130.93 29.9407 133.427 34.2152 124.482 44.6731Z" fill="#181718"/>
<path d="M125.305 30.1822C126.353 29.6207 127.23 28.7944 127.842 27.789C128.455 26.7836 128.782 25.6358 128.789 24.4648C130.6 27.5744 130.408 31.1052 125.305 30.1822Z" fill="#181718"/>
<path d="M126.43 47.022C125.171 48.5967 123.338 49.6313 121.317 49.9076C118.655 50.2481 117.768 47.8106 118.884 45.5434C119.899 43.5092 122.542 40.8745 124.994 41.5825C127.445 42.2904 127.966 45.0953 126.43 47.022Z" fill="#FFB573"/>
<path d="M123.786 216.758C124.107 193.36 127.161 137.639 127.161 137.639L93.448 140.426C93.448 140.426 100.152 197.859 104.195 221.723C108.402 246.546 121.308 304.669 121.308 304.669L135.027 303.531C135.027 303.531 130.015 234.851 123.786 216.758Z" fill="#181718"/>
<path d="M151.875 212.986C144.878 177.759 143.305 150.203 136.665 136.859L104.003 140.444C104.003 140.444 123.457 192.948 132.96 215.361C142.829 238.66 162.311 278.458 162.311 278.458H178.628C178.628 278.458 163.399 229.036 151.875 212.986Z" fill="#181718"/>
<path d="M48.3473 79.5958L44.8168 77.4093C44.2421 77.0525 43.5599 76.8997 42.8841 76.9764C42.2083 77.053 41.5797 77.3545 41.1034 77.8304L38.7071 80.3127C38.449 80.5797 38.2495 80.8956 38.121 81.2411C37.9925 81.5866 37.9378 81.9542 37.96 82.3213C37.9823 82.6883 38.0812 83.047 38.2506 83.3751C38.42 83.7032 38.6563 83.9938 38.9449 84.2288L40.6553 85.6537C42.1409 86.8918 43.8771 87.808 45.7498 88.3421L50.9174 89.8386L54.3107 86.2541C55.3443 82.5262 48.3473 79.5958 48.3473 79.5958Z" fill="#FFB573"/>
<path d="M100.609 77.9286C99.3289 80.9934 98.0759 83.8431 96.7131 86.7555C95.3503 89.668 93.9692 92.5356 92.4418 95.4032C90.9143 98.2709 89.2863 101.103 87.4387 103.943C86.4851 105.415 85.4563 106.839 84.3564 108.209C83.1174 109.78 81.7066 111.213 80.1491 112.484C79.1224 113.307 77.9872 113.991 76.7741 114.518C76.3899 114.67 76.0332 114.814 75.6125 114.939L74.9722 115.109C74.6501 115.187 74.3232 115.244 73.9936 115.28C72.8782 115.405 71.7486 115.323 70.6643 115.038C69.306 114.672 68.0156 114.097 66.8411 113.335C65.9605 112.796 65.12 112.198 64.3259 111.543C61.686 109.282 59.253 106.799 57.0546 104.123C54.9235 101.622 52.9113 99.0953 50.9814 96.5324C49.0515 93.9694 47.1948 91.4334 45.2924 88.736L55.4082 82.3376C58.6028 87.3851 62.1349 92.2199 65.9814 96.8102C67.7555 98.9314 69.7041 100.906 71.8076 102.716C72.216 103.043 72.6469 103.342 73.0972 103.612C73.4356 103.836 73.7741 103.925 73.5363 103.845C73.0813 103.747 72.6101 103.747 72.1552 103.845H72.082C72.0363 103.845 72.0363 103.845 72.0271 103.845C72.2338 103.713 72.4323 103.569 72.6216 103.415C73.4564 102.669 74.2132 101.843 74.8808 100.95C75.6582 99.9287 76.4357 98.7906 77.1765 97.5988C78.689 95.1197 80.0689 92.5653 81.3106 89.9458C82.5911 87.2574 83.8259 84.569 84.9692 81.7641C86.1125 78.9592 87.2009 76.1364 88.1247 73.4121L100.609 77.9286Z" fill="#25B3AB"/>
<g opacity="0.6">
<path opacity="0.6" d="M100.609 77.9286C99.3289 80.9934 98.0759 83.8431 96.7131 86.7555C95.3503 89.668 93.9692 92.5356 92.4418 95.4032C90.9143 98.2709 89.2863 101.103 87.4387 103.943C86.4851 105.415 85.4563 106.839 84.3564 108.209C83.1174 109.78 81.7066 111.213 80.1491 112.484C79.1224 113.307 77.9872 113.991 76.7741 114.518C76.3899 114.67 76.0332 114.814 75.6125 114.939L74.9722 115.109C74.6501 115.187 74.3232 115.244 73.9936 115.28C72.8782 115.405 71.7486 115.323 70.6643 115.038C69.306 114.672 68.0156 114.097 66.8411 113.335C65.9605 112.796 65.12 112.198 64.3259 111.543C61.686 109.282 59.253 106.799 57.0546 104.123C54.9235 101.622 52.9113 99.0953 50.9814 96.5324C49.0515 93.9694 47.1948 91.4334 45.2924 88.736L55.4082 82.3376C58.6028 87.3851 62.1349 92.2199 65.9814 96.8102C67.7555 98.9314 69.7041 100.906 71.8076 102.716C72.216 103.043 72.6469 103.342 73.0972 103.612C73.4356 103.836 73.7741 103.925 73.5363 103.845C73.0813 103.747 72.6101 103.747 72.1552 103.845H72.082C72.0363 103.845 72.0363 103.845 72.0271 103.845C72.2338 103.713 72.4323 103.569 72.6216 103.415C73.4564 102.669 74.2132 101.843 74.8808 100.95C75.6582 99.9287 76.4357 98.7906 77.1765 97.5988C78.689 95.1197 80.0689 92.5653 81.3106 89.9458C82.5911 87.2574 83.8259 84.569 84.9692 81.7641C86.1125 78.9592 87.2009 76.1364 88.1247 73.4121L100.609 77.9286Z" fill="white"/>
</g>
<path d="M124.555 64.1729C121.125 70.4459 108.914 94.3458 107.433 109.096C102.027 95.6541 103.207 65.9204 103.207 65.9204C99.3546 66.2883 95.5755 67.1936 91.9845 68.6088C90.8271 69.0747 89.824 69.8454 89.0862 70.8356C88.3485 71.8257 87.9049 72.9966 87.8046 74.2186C86.7518 89.6036 87.2481 105.053 89.2863 120.343C93.082 149.288 96.6033 194.292 96.6033 194.292C96.6033 194.292 126.832 193.064 150.155 188.243C147.256 166.117 137.561 129.035 137.469 119.106C137.359 106.327 137.661 81.3429 138.073 70.9119C138.144 69.4387 137.673 67.9895 136.747 66.8271C135.821 65.6647 134.5 64.8661 133.024 64.5762C130.232 64.0698 127.383 63.9341 124.555 64.1729Z" fill="#25B3AB"/>
<path opacity="0.7" d="M124.555 64.1729C121.125 70.4458 108.914 94.3457 107.433 109.096C102.027 95.6541 103.207 65.9204 103.207 65.9204C99.3546 66.2883 95.5755 67.1935 91.9845 68.6088C90.8271 69.0747 89.824 69.8454 89.0862 70.8355C88.3485 71.8257 87.9049 72.9966 87.8046 74.2186C86.7518 89.6036 87.2481 105.053 89.2863 120.343C93.082 149.288 96.6033 194.292 96.6033 194.292C96.6033 194.292 126.832 193.064 150.155 188.243C147.256 166.117 137.561 129.035 137.469 119.106C137.359 106.318 137.661 81.3249 138.073 70.9029C138.157 69.4753 137.726 68.0642 136.855 66.9171C135.983 65.77 134.728 64.9603 133.308 64.6299C130.426 64.0797 127.48 63.9259 124.555 64.1729Z" fill="white"/>
<path d="M117.43 189.506C112.18 161.125 108.018 119.482 107.68 114.473H108.146C108.485 119.482 112.655 161.072 117.896 189.461L117.43 189.506Z" fill="white"/>
<path d="M114.814 139.009H86.9359C86.3734 138.983 85.8345 138.779 85.3995 138.429C84.9645 138.079 84.6565 137.6 84.5212 137.064L75.2011 94.6146C75.1332 94.3824 75.1223 94.1377 75.1693 93.9006C75.2162 93.6635 75.3197 93.4407 75.4713 93.2502C75.6229 93.0598 75.8183 92.9071 76.0416 92.8047C76.2648 92.7023 76.5096 92.6531 76.756 92.661H104.625C105.19 92.6859 105.732 92.8898 106.169 93.2421C106.606 93.5943 106.915 94.0759 107.049 94.6146L116.369 137.064C116.437 137.296 116.448 137.54 116.401 137.777C116.354 138.014 116.251 138.236 116.099 138.426C115.947 138.616 115.751 138.768 115.528 138.869C115.305 138.971 115.06 139.018 114.814 139.009Z" fill="white"/>
<path d="M113.945 139.403H85.5912C85.0164 139.377 84.4655 139.17 84.0217 138.811C83.5779 138.452 83.2652 137.962 83.1308 137.413L73.6461 94.2555C73.5761 94.0188 73.5646 93.7692 73.6127 93.5273C73.6608 93.2855 73.767 93.0583 73.9226 92.8647C74.0782 92.6711 74.2786 92.5166 74.5073 92.4141C74.736 92.3115 74.9863 92.2639 75.2375 92.275H103.591C104.165 92.2983 104.716 92.5042 105.16 92.8615C105.604 93.2189 105.917 93.7082 106.052 94.2555L115.527 137.413C115.599 137.65 115.612 137.9 115.565 138.142C115.518 138.384 115.413 138.612 115.258 138.807C115.103 139.001 114.904 139.157 114.675 139.26C114.447 139.364 114.196 139.413 113.945 139.403Z" fill="#25B3AB"/>
<path d="M117.192 115.011L110.14 114.751C109.293 114.724 108.449 114.867 107.661 115.173L104.003 116.606C103.653 116.739 103.334 116.941 103.067 117.199C102.799 117.457 102.589 117.766 102.448 118.107C102.307 118.448 102.24 118.814 102.249 119.181C102.259 119.549 102.345 119.911 102.503 120.245L103.966 123.336C104.259 123.94 104.756 124.425 105.373 124.71C105.99 124.994 106.689 125.06 107.35 124.896L111.384 123.919C111.384 123.919 118.957 123.327 119.231 119.438L117.192 115.011Z" fill="#FFB573"/>
<path d="M136.664 68.0078C138.411 70.6962 140.012 73.1606 141.585 75.7863C143.158 78.4119 144.704 81.0376 146.158 83.7619C147.613 86.4861 148.994 89.291 150.247 92.311C150.897 93.8878 151.453 95.5006 151.911 97.1411C152.501 99.1405 152.773 101.217 152.716 103.298V103.647C152.716 103.647 152.716 103.728 152.716 103.826C152.716 104.149 152.625 104.472 152.561 104.794C152.497 105.117 152.414 105.359 152.323 105.636C152.231 105.914 152.131 106.138 152.03 106.38C151.683 107.157 151.234 107.886 150.695 108.549C149.95 109.469 149.1 110.301 148.161 111.031C146.723 112.141 145.193 113.134 143.588 113.997C140.766 115.511 137.859 116.866 134.881 118.057C132 119.267 129.128 120.351 126.238 121.391C123.347 122.43 120.503 123.407 117.494 124.402L114.009 113.11C116.753 112.375 119.552 111.47 122.286 110.556C125.021 109.642 127.774 108.621 130.372 107.554C132.921 106.522 135.407 105.347 137.817 104.032C138.834 103.477 139.804 102.842 140.716 102.133C140.957 101.959 141.172 101.754 141.356 101.523C141.278 101.61 141.216 101.71 141.174 101.819C141.174 101.9 141.128 101.953 141.082 102.052C141.045 102.157 141.017 102.265 141 102.375C140.961 102.512 140.937 102.653 140.927 102.796C140.927 102.85 140.927 102.85 140.927 102.796V102.742C140.863 101.892 140.694 101.052 140.424 100.242C140.058 99.0685 139.624 97.9166 139.125 96.7916C138.014 94.324 136.759 91.9214 135.366 89.5957C133.939 87.194 132.421 84.7924 130.792 82.4266C129.164 80.0608 127.5 77.704 125.826 75.5533L136.664 68.0078Z" fill="#25B3AB"/>
<g opacity="0.7">
<path opacity="0.7" d="M136.664 68.0078C138.411 70.6962 140.012 73.1606 141.585 75.7863C143.158 78.4119 144.704 81.0376 146.158 83.7619C147.613 86.4861 148.994 89.291 150.247 92.311C150.897 93.8878 151.453 95.5006 151.911 97.1411C152.501 99.1405 152.773 101.217 152.716 103.298V103.647C152.716 103.647 152.716 103.728 152.716 103.826C152.716 104.149 152.625 104.472 152.561 104.794C152.497 105.117 152.414 105.359 152.323 105.636C152.231 105.914 152.131 106.138 152.03 106.38C151.683 107.157 151.234 107.886 150.695 108.549C149.95 109.469 149.1 110.301 148.161 111.031C146.723 112.141 145.193 113.134 143.588 113.997C140.766 115.511 137.859 116.866 134.881 118.057C132 119.267 129.128 120.351 126.238 121.391C123.347 122.43 120.503 123.407 117.494 124.402L114.009 113.11C116.753 112.375 119.552 111.47 122.286 110.556C125.021 109.642 127.774 108.621 130.372 107.554C132.921 106.522 135.407 105.347 137.817 104.032C138.834 103.477 139.804 102.842 140.716 102.133C140.957 101.959 141.172 101.754 141.356 101.523C141.278 101.61 141.216 101.71 141.174 101.819C141.174 101.9 141.128 101.953 141.082 102.052C141.045 102.157 141.017 102.265 141 102.375C140.961 102.512 140.937 102.653 140.927 102.796C140.927 102.85 140.927 102.85 140.927 102.796V102.742C140.863 101.892 140.694 101.052 140.424 100.242C140.058 99.0685 139.624 97.9166 139.125 96.7916C138.014 94.324 136.759 91.9214 135.366 89.5957C133.939 87.194 132.421 84.7924 130.792 82.4266C129.164 80.0608 127.5 77.704 125.826 75.5533L136.664 68.0078Z" fill="white"/>
</g>
<path d="M127.408 99.1035C127.348 99.1046 127.289 99.0903 127.236 99.062C127.183 99.0337 127.138 98.9924 127.107 98.9422C127.08 98.9031 127.061 98.8591 127.052 98.8128C127.043 98.7665 127.044 98.7189 127.054 98.6728C127.064 98.6268 127.084 98.5833 127.112 98.5449C127.14 98.5064 127.175 98.474 127.216 98.4493L128.643 97.5532C129.975 96.7303 131.02 95.5306 131.641 94.1128C132.262 92.695 132.428 91.126 132.119 89.6134L129.247 75.356C129.028 74.2968 128.453 73.3402 127.614 72.6391C126.774 71.9379 125.719 71.5328 124.617 71.4884C123.515 71.444 122.43 71.7629 121.535 72.3942C120.64 73.0255 119.987 73.9327 119.68 74.9706L115.61 88.9413C115.166 90.4196 115.19 91.995 115.68 93.4592C116.17 94.9233 117.102 96.2072 118.354 97.141L119.707 98.1447C119.769 98.2061 119.806 98.2874 119.812 98.3735C119.817 98.4597 119.791 98.5449 119.738 98.6136C119.684 98.6822 119.607 98.7297 119.521 98.7473C119.435 98.7648 119.345 98.7513 119.268 98.7092L117.988 97.7055C116.613 96.69 115.586 95.2893 115.042 93.689C114.498 92.0888 114.463 90.3644 114.942 88.7442L118.985 74.8003C119.335 73.6074 120.084 72.5643 121.112 71.8384C122.139 71.1126 123.386 70.7461 124.652 70.7978C125.918 70.8494 127.129 71.3163 128.092 72.1234C129.055 72.9305 129.713 74.031 129.96 75.2484L132.832 89.497C133.173 91.1507 132.993 92.8671 132.315 94.418C131.637 95.969 130.494 97.2812 129.036 98.1805L127.6 99.0766C127.54 99.1028 127.474 99.1121 127.408 99.1035Z" fill="#181718"/>
<path d="M129.603 75.6975L119.332 75.2763C119.284 75.2752 119.237 75.2647 119.194 75.2455C119.151 75.2263 119.111 75.1987 119.079 75.1645C119.047 75.1302 119.022 75.09 119.005 75.0461C118.989 75.0022 118.982 74.9555 118.984 74.9089C118.994 74.8154 119.038 74.7286 119.109 74.6656C119.18 74.6026 119.273 74.5679 119.369 74.5684L129.631 74.9895C129.678 74.9907 129.725 75.0012 129.769 75.0204C129.812 75.0396 129.851 75.0671 129.884 75.1014C129.916 75.1356 129.941 75.1759 129.957 75.2198C129.974 75.2637 129.981 75.3103 129.978 75.357C129.979 75.404 129.969 75.4506 129.95 75.4938C129.93 75.537 129.902 75.5758 129.867 75.6078C129.832 75.6398 129.79 75.6643 129.745 75.6797C129.699 75.6952 129.651 75.7012 129.603 75.6975Z" fill="#181718"/>
<path d="M124.609 71.4854C124.515 71.4832 124.424 71.446 124.356 71.3811C124.289 71.3163 124.248 71.2287 124.244 71.1359C124.244 69.3436 123.677 66.234 121.966 65.544C121.922 65.5263 121.882 65.5004 121.849 65.4677C121.815 65.4349 121.789 65.396 121.77 65.3532C121.752 65.3103 121.743 65.2643 121.742 65.2179C121.742 65.1715 121.752 65.1254 121.77 65.0825C121.788 65.0395 121.814 65.0005 121.847 64.9676C121.881 64.9346 121.921 64.9085 121.964 64.8906C122.008 64.8727 122.055 64.8634 122.102 64.8633C122.15 64.8632 122.197 64.8722 122.241 64.8898C124.774 65.9025 124.984 70.5892 124.984 71.1628C124.985 71.2572 124.948 71.348 124.881 71.4164C124.815 71.4848 124.724 71.5256 124.628 71.5302L124.609 71.4854Z" fill="#181718"/>
<path d="M93.1918 83.6643H93.1186C93.0254 83.6428 92.9441 83.5872 92.8914 83.5089C92.8387 83.4306 92.8186 83.3355 92.8351 83.2431C94.0424 77.3555 99.0363 68.0088 103.436 65.3204C103.516 65.2864 103.606 65.2818 103.689 65.3072C103.773 65.3326 103.844 65.3865 103.891 65.4591C103.937 65.5317 103.956 65.6181 103.943 65.7028C103.93 65.7875 103.886 65.8649 103.82 65.9208C99.5668 68.5465 94.7193 77.6154 93.5485 83.3686C93.5336 83.4509 93.4898 83.5255 93.4246 83.5795C93.3595 83.6335 93.2771 83.6635 93.1918 83.6643Z" fill="#181718"/>
<path d="M96.1919 84.5875C95.6248 86.0124 94.3626 86.8727 93.448 86.4963C92.5333 86.1199 92.1766 84.704 92.7437 83.2523C93.3108 81.8006 94.573 80.9672 95.4876 81.3346C96.4022 81.702 96.7681 83.1627 96.1919 84.5875Z" fill="white"/>
<path d="M120.338 98.459C120.338 99.1311 119.918 99.6598 119.469 99.6419C119.021 99.6239 118.674 99.0683 118.701 98.3962C118.729 97.7241 119.122 97.1954 119.57 97.2133C120.018 97.2313 120.366 97.7958 120.338 98.459Z" fill="white"/>
<path d="M128.222 98.7812C128.222 99.4533 127.811 99.982 127.354 99.9641C126.896 99.9462 126.567 99.3906 126.594 98.7185C126.622 98.0464 127.006 97.5177 127.509 97.5356C128.012 97.5535 128.25 98.1002 128.222 98.7812Z" fill="white"/>
<path d="M283.326 86.3606L282.411 86.2979C282.565 84.3901 282.312 82.4719 281.668 80.6652C281.024 78.8585 280.003 77.203 278.67 75.8038C277.338 74.4046 275.723 73.2925 273.927 72.5381C272.132 71.7838 270.197 71.4037 268.244 71.4221V70.5259C270.322 70.5086 272.381 70.9147 274.291 71.7185C276.201 72.5222 277.919 73.706 279.338 75.1949C280.756 76.6837 281.842 78.4451 282.529 80.3672C283.216 82.2893 283.487 84.3303 283.326 86.3606Z" fill="#25B3AB"/>
<path d="M283.69 89.9316L283.159 97.3516L284.074 97.4143L284.604 89.9943L283.69 89.9316Z" fill="#25B3AB"/>
<path d="M268.244 73.6627H205.134C201.687 73.7182 198.385 75.0278 195.87 77.3367C193.354 79.6457 191.805 82.7889 191.524 86.1548L190.948 94.4799C190.817 96.0814 191.028 97.692 191.568 99.2091C192.108 100.726 192.964 102.116 194.083 103.291C195.202 104.465 196.558 105.399 198.066 106.031C199.573 106.663 201.198 106.981 202.838 106.963H265.948L278.186 114.365L280.125 86.1548C280.257 84.5534 280.047 82.9425 279.508 81.425C278.97 79.9075 278.114 78.5167 276.996 77.3413C275.878 76.1658 274.523 75.2316 273.016 74.5983C271.509 73.9649 269.883 73.6463 268.244 73.6627Z" fill="#25B3AB"/>
<path d="M265.043 85.582H206.588V87.6611H265.043V85.582Z" fill="white"/>
<path d="M264.53 92.9648H221.131V95.0439H264.53V92.9648Z" fill="white"/>
<path d="M173.305 118.2H237.805C239.482 118.182 241.144 118.507 242.685 119.154C244.227 119.801 245.614 120.756 246.758 121.957C247.902 123.159 248.777 124.581 249.328 126.133C249.88 127.685 250.095 129.332 249.96 130.97L249.375 139.483C249.085 142.923 247.501 146.134 244.93 148.494C242.359 150.854 238.985 152.194 235.463 152.253H170.954L157.399 159.825L159.393 130.97C159.681 127.529 161.264 124.317 163.836 121.956C166.407 119.596 169.782 118.257 173.305 118.2Z" fill="white"/>
<path opacity="0.15" d="M173.305 118.2H237.805C239.482 118.182 241.144 118.507 242.685 119.154C244.227 119.801 245.614 120.756 246.758 121.957C247.902 123.159 248.777 124.581 249.328 126.133C249.88 127.685 250.095 129.332 249.96 130.97L249.375 139.483C249.085 142.923 247.501 146.134 244.93 148.494C242.359 150.854 238.985 152.194 235.463 152.253H170.954L157.399 159.825L159.393 130.97C159.681 127.529 161.264 124.317 163.836 121.956C166.407 119.596 169.782 118.257 173.305 118.2Z" fill="#25B3AB"/>
<path opacity="0.5" d="M234.53 130.389H174.75V132.521H234.53V130.389Z" fill="#25B3AB"/>
<path opacity="0.5" d="M197.853 137.934H174.228V140.066H197.853V137.934Z" fill="#25B3AB"/>
<path opacity="0.5" d="M218.735 137.934H203.643V140.066H218.735V137.934Z" fill="#25B3AB"/>
</g>
</g>
<defs>
<clipPath id="clip0_54721_42231">
<rect width="300" height="220" fill="white" transform="translate(0 0.710938)"/>
</clipPath>
<clipPath id="clip1_54721_42231">
<rect width="300" height="353.077" fill="white" transform="translate(0 0.421875)"/>
</clipPath>
</defs>
</svg>
